# xmcd
#
# Track frame offsets: 
#        150
#        14850
#        34817
#        47547
#        63597
#        77067
#        92095
#        108732
#        124622
#        144147
#        157200
#        174072
#        187550
#        199995
#
# Disc length: 2878 seconds
#
# Revision: 1
# Processed by: cddbd v1.5.2PL0 Copyright (c) Steve Scherf et al.
# Submitted via: ExactAudioCopy v0.99pb5
#
DISCID=b70b3c0e
DTITLE=Various Artist - Mitten ins Herz - Die schönsten Country Balladen - CD
DTITLE=2
DYEAR=1994
DGENRE=Country
TTITLE0=First Edition - But you know I love you
TTITLE1=Judds (Wynonna and Naomi) - Young love
TTITLE2=Jonny Hill - Kann Liebe alles verzeihn
TTITLE3=Hanna and Daana - Ich werde dich lieben
TTITLE4=South Mountain Dixiefied - You make me feel so high
TTITLE5=Canyon - Mädchen aus meinen Träumen
TTITLE6=Mike Herman and Booze Company - Es weht ein Traum ...
TTITLE7=Alabama - On this Side of the moon
TTITLE8=John Brack - Borderline
TTITLE9=Dickey Lee - Die Tür steht immer offen
TTITLE10=Ben Steneker - Part of me
TTITLE11=Super Country - Back to you
TTITLE12=Moody Brothers - Dreaming
TTITLE13=Willie Nelson - Always on my mind
EXTD=
EXTT0=
EXTT1=
EXTT2=
EXTT3=
EXTT4=
EXTT5=
EXTT6=
EXTT7=
EXTT8=
EXTT9=
EXTT10=
EXTT11=
EXTT12=
EXTT13=
PLAYORDER=
